<mxfile host="Electron" modified="2024-07-18T06:29:32.059Z" agent="Mozilla/5.0 (Windows NT 10.0; Win64; x64) AppleWebKit/537.36 (KHTML, like Gecko) draw.io/24.6.4 Chrome/124.0.6367.207 Electron/30.0.6 Safari/537.36" etag="CJrF2b7kZ56vfZ7uuFDB" version="24.6.4" type="device">
  <diagram name="Page-1" id="Cdd_H0dqxq21eykkrrPU">
    <mxGraphModel dx="1102" dy="810" grid="1" gridSize="10" guides="1" tooltips="1" connect="1" arrows="1" fold="1" page="1" pageScale="1" pageWidth="850" pageHeight="1100" math="0" shadow="0">
      <root>
        <mxCell id="0" />
        <mxCell id="1" parent="0" />
        <mxCell id="Zd7ae0P5vMi94ikjkkI3-1" value="Dashboard report" style="rounded=1;whiteSpace=wrap;html=1;" vertex="1" parent="1">
          <mxGeometry x="280" y="170" width="120" height="60" as="geometry" />
        </mxCell>
        <mxCell id="Zd7ae0P5vMi94ikjkkI3-2" value="Customer" style="rounded=1;whiteSpace=wrap;html=1;" vertex="1" parent="1">
          <mxGeometry x="280" y="300" width="120" height="60" as="geometry" />
        </mxCell>
        <mxCell id="Zd7ae0P5vMi94ikjkkI3-4" value="Logout" style="rounded=1;whiteSpace=wrap;html=1;" vertex="1" parent="1">
          <mxGeometry x="280" y="420" width="120" height="60" as="geometry" />
        </mxCell>
        <mxCell id="Zd7ae0P5vMi94ikjkkI3-5" value="View Conuter revenue" style="rounded=1;whiteSpace=wrap;html=1;" vertex="1" parent="1">
          <mxGeometry x="480" y="170" width="120" height="60" as="geometry" />
        </mxCell>
        <mxCell id="Zd7ae0P5vMi94ikjkkI3-6" value="" style="endArrow=classic;html=1;rounded=0;" edge="1" parent="1" source="Zd7ae0P5vMi94ikjkkI3-1" target="Zd7ae0P5vMi94ikjkkI3-5">
          <mxGeometry width="50" height="50" relative="1" as="geometry">
            <mxPoint x="400" y="440" as="sourcePoint" />
            <mxPoint x="450" y="390" as="targetPoint" />
          </mxGeometry>
        </mxCell>
        <mxCell id="Zd7ae0P5vMi94ikjkkI3-7" value="CRUD Customer" style="rounded=1;whiteSpace=wrap;html=1;" vertex="1" parent="1">
          <mxGeometry x="490" y="300" width="120" height="60" as="geometry" />
        </mxCell>
        <mxCell id="Zd7ae0P5vMi94ikjkkI3-8" value="" style="endArrow=classic;html=1;rounded=0;" edge="1" parent="1" source="Zd7ae0P5vMi94ikjkkI3-2" target="Zd7ae0P5vMi94ikjkkI3-7">
          <mxGeometry width="50" height="50" relative="1" as="geometry">
            <mxPoint x="400" y="440" as="sourcePoint" />
            <mxPoint x="450" y="390" as="targetPoint" />
          </mxGeometry>
        </mxCell>
        <mxCell id="Zd7ae0P5vMi94ikjkkI3-11" value="Login User" style="rounded=1;whiteSpace=wrap;html=1;" vertex="1" parent="1">
          <mxGeometry x="30" y="320" width="120" height="60" as="geometry" />
        </mxCell>
        <mxCell id="Zd7ae0P5vMi94ikjkkI3-12" value="" style="endArrow=classic;html=1;rounded=0;" edge="1" parent="1" source="Zd7ae0P5vMi94ikjkkI3-11" target="Zd7ae0P5vMi94ikjkkI3-1">
          <mxGeometry width="50" height="50" relative="1" as="geometry">
            <mxPoint x="400" y="420" as="sourcePoint" />
            <mxPoint x="450" y="370" as="targetPoint" />
          </mxGeometry>
        </mxCell>
        <mxCell id="Zd7ae0P5vMi94ikjkkI3-13" value="" style="endArrow=classic;html=1;rounded=0;" edge="1" parent="1" target="Zd7ae0P5vMi94ikjkkI3-2">
          <mxGeometry width="50" height="50" relative="1" as="geometry">
            <mxPoint x="150" y="330" as="sourcePoint" />
            <mxPoint x="300" y="240" as="targetPoint" />
          </mxGeometry>
        </mxCell>
        <mxCell id="Zd7ae0P5vMi94ikjkkI3-14" value="" style="endArrow=classic;html=1;rounded=0;" edge="1" parent="1" source="Zd7ae0P5vMi94ikjkkI3-11" target="Zd7ae0P5vMi94ikjkkI3-4">
          <mxGeometry width="50" height="50" relative="1" as="geometry">
            <mxPoint x="160" y="340" as="sourcePoint" />
            <mxPoint x="280" y="425" as="targetPoint" />
          </mxGeometry>
        </mxCell>
      </root>
    </mxGraphModel>
  </diagram>
</mxfile>
